<svg id="Layer_1" data-name="Layer 1" xmlns="http://www.w3.org/2000/svg" viewBox="0 0 1000 492.59"><defs><style>.cls-1{fill:#e20074;}</style></defs><path d="M2.89,491.5V445.82H18.75c11.9,0,19.35,8,19.35,22.84S30.65,491.5,18.75,491.5ZM12.12,483h6c6.36,0,10.46-4.24,10.46-14.29s-4.1-14.29-10.46-14.29h-6Z"/><path d="M72.36,454.37H54.72V464h17v8.55h-17V483H72.36v8.55H45.48V445.82H72.36Z"/><path d="M80.22,474.81v-29h9.23v27.76c0,7.11,2.12,10.12,7.72,10.12s7.8-3,7.8-10.12V445.82h9.16v29c0,11.42-6.08,17.78-17,17.78S80.22,486.23,80.22,474.81Z"/><path d="M119.8,454.37v-8.55h32.62v8.55H140.73V491.5H131.5V454.37Z"/><path d="M155.56,478.57h9.16c.82,3.83,3.35,5.34,6.77,5.34,3.9,0,5.88-2.19,5.88-5.13s-1.91-4.44-5.47-5.4l-5.26-1.51c-7.25-2-10.19-7.24-10.19-12.85,0-8.69,6.5-14.29,15-14.29,9.23,0,14.22,5.4,15.11,13.81h-9c-.61-3.42-2.53-5.13-6.08-5.13-3.15,0-5.55,1.91-5.55,5s2.12,4.24,4.66,4.92l5.26,1.44c6.84,1.78,11,6.84,11,13.47,0,9.16-6.77,14.36-15.32,14.36C162,492.59,156.38,487.6,155.56,478.57Z"/><path d="M211.49,444.73c9.09,0,16.07,5.95,17.37,15.59h-9.64c-1-4.72-4.17-6.71-7.73-6.71-6.29,0-9.78,5.2-9.78,15.05s3.49,15,9.78,15c3.56,0,6.7-2,7.73-6.7h9.64c-1.3,9.64-8.28,15.59-17.37,15.59-12.38,0-19.35-9.23-19.35-23.93S199.11,444.73,211.49,444.73Z"/><path d="M261.06,445.82h9.23V491.5h-9.23V472.56H244.72V491.5h-9.23V445.82h9.23V464h16.34Z"/><path d="M306.46,454.37H288.82V464h16.95v8.55H288.82V483h17.64v8.55H279.58V445.82h26.88Z"/><path d="M322.38,454.37v-8.55H355v8.55H343.31V491.5h-9.23V454.37Z"/><path d="M387.88,454.37H370.24V464h17v8.55h-17V483h17.64v8.55H361V445.82h26.87Z"/><path d="M396.09,491.5V445.82h9.23V483h16.34v8.55Z"/><path d="M454.48,454.37H436.84V464h17v8.55h-17V483h17.64v8.55H427.61V445.82h26.87Z"/><path d="M475.6,473.1h-.41l-3.28,4.24V491.5h-9.23V445.82h9.23v17.23h.41l13.06-17.23h11.35l-15.59,19.69,15.8,26h-10.6Z"/><path d="M497.48,468.66c0-14.77,6.84-23.93,19.35-23.93s19.35,9.16,19.35,23.93-6.83,23.93-19.35,23.93S497.48,483.43,497.48,468.66Zm29.13,0c0-10-3.42-15.05-9.78-15.05s-9.78,5.07-9.78,15.05,3.42,15,9.78,15S526.61,478.64,526.61,468.66Z"/><path d="M579.67,445.82h8.54V491.5H579V465.72h-.41l-11.21,20.1h-2.94l-11.15-20.1h-.41V491.5h-9.23V445.82h8.48l13.61,25.3h.41Z"/><path d="M610,491.5V445.82h9.23V491.5Z"/><path d="M625.26,454.37v-8.55h32.62v8.55h-11.7V491.5H637V454.37Z"/><path d="M672.57,478.57h9.17c.82,3.83,3.35,5.34,6.77,5.34,3.89,0,5.88-2.19,5.88-5.13s-1.92-4.44-5.47-5.4l-5.27-1.51c-7.24-2-10.19-7.24-10.19-12.85,0-8.69,6.5-14.29,15-14.29,9.23,0,14.22,5.4,15.11,13.81h-9c-.62-3.42-2.54-5.13-6.09-5.13-3.15,0-5.54,1.91-5.54,5s2.12,4.24,4.65,4.92l5.27,1.44c6.83,1.78,11,6.84,11,13.47,0,9.16-6.77,14.36-15.31,14.36C679,492.59,673.4,487.6,672.57,478.57Z"/><path d="M709.15,468.66c0-14.77,6.84-23.93,19.35-23.93s19.35,9.16,19.35,23.93S741,492.59,728.5,492.59,709.15,483.43,709.15,468.66Zm29.13,0c0-10-3.41-15.05-9.78-15.05s-9.77,5.07-9.77,15.05,3.42,15,9.77,15S738.28,478.64,738.28,468.66Z"/><path d="M755.3,491.5V445.82h9.23V483h16.35v8.55Z"/><path d="M785.45,474.81v-29h9.23v27.76c0,7.11,2.12,10.12,7.73,10.12s7.8-3,7.8-10.12V445.82h9.16v29c0,11.42-6.09,17.78-17,17.78S785.45,486.23,785.45,474.81Z"/><path d="M825,454.37v-8.55h32.62v8.55h-11.7V491.5h-9.23V454.37Z"/><path d="M863.6,491.5V445.82h9.23V491.5Z"/><path d="M880.28,468.66c0-14.77,6.84-23.93,19.35-23.93S919,453.89,919,468.66s-6.84,23.93-19.35,23.93S880.28,483.43,880.28,468.66Zm29.13,0c0-10-3.42-15.05-9.78-15.05s-9.78,5.07-9.78,15.05,3.42,15,9.78,15S909.41,478.64,909.41,468.66Z"/><path d="M952.62,445.82h9.17V491.5h-9.38l-16.34-28.58h-.4V491.5h-9.24V445.82h9.37l16.41,28.72h.41Z"/><path d="M968.75,478.57h9.16c.82,3.83,3.35,5.34,6.77,5.34,3.9,0,5.89-2.19,5.89-5.13s-1.92-4.44-5.47-5.4l-5.27-1.51c-7.25-2-10.19-7.24-10.19-12.85,0-8.69,6.5-14.29,15-14.29,9.23,0,14.22,5.4,15.11,13.81h-9c-.61-3.42-2.53-5.13-6.08-5.13-3.15,0-5.54,1.91-5.54,5s2.11,4.24,4.65,4.92l5.26,1.44c6.84,1.78,11,6.84,11,13.47,0,9.16-6.77,14.36-15.32,14.36C975.18,492.59,969.57,487.6,968.75,478.57Z"/><path class="cls-1" d="M44.16,145.74H0V101.58H44.16ZM0,0V75.08H13.25V72.87c0-35.33,19.87-57.41,57.41-57.41h2.21v159c0,22.08-8.83,30.91-30.91,30.91H35.33v15.46H150.16V205.36h-6.63c-22.08,0-30.91-8.83-30.91-30.91v-159h2.21c37.53,0,57.41,22.08,57.41,57.41v2.21h13.25V0ZM141.32,145.74h44.17V101.58H141.32Z"/></svg>